<svg width="718" height="718" viewBox="0 0 718 718" fill="none" xmlns="http://www.w3.org/2000/svg">
<path d="M525.667 70.261C476.637 41.8993 419.713 25.667 359 25.667C174.905 25.667 25.6666 174.905 25.6666 359C25.6666 412.324 38.1873 462.72 60.4486 507.417C66.3646 519.294 68.3336 532.87 64.904 545.687L45.0503 619.89C36.4316 652.1 65.9003 681.567 98.1116 672.95L172.313 653.097C185.131 649.667 198.707 651.637 210.584 657.55C255.279 679.814 305.677 692.334 359 692.334C543.093 692.334 692.333 543.094 692.333 359C692.333 298.287 676.1 241.363 647.74 192.334" stroke="#282624" stroke-width="50" stroke-linecap="round"/>
<path d="M225.667 359H225.967M358.7 359H359M492.033 359H492.333" stroke="#282624" stroke-width="66.6667" stroke-linecap="round" stroke-linejoin="round"/>
</svg>
