<svg width="424" height="429" viewBox="0 0 424 429" fill="none" xmlns="http://www.w3.org/2000/svg">
<path fill-rule="evenodd" clip-rule="evenodd" d="M424 191C424 243.664 400.343 291.349 362.08 325.901C346.63 383.794 287.285 427.261 215.818 428.949C214.716 428.983 213.61 429 212.5 429L212.066 428.999L211.821 429L211.5 429C137.621 429 75.8533 384.361 60.6079 324.706C23.1173 290.254 0 243.059 0 191C0 163.107 6.63635 136.611 18.5641 112.723C7.0481 100.751 0 84.6746 0 67C0 29.9968 30.8923 0 69 0C88.1343 0 105.449 7.56274 117.948 19.7776C146.289 7.11719 178.222 0 212 0C245.778 0 277.711 7.11719 306.052 19.7776C318.551 7.56274 335.866 0 355 0C393.108 0 424 29.9968 424 67C424 84.6746 416.952 100.751 405.436 112.723C417.364 136.611 424 163.107 424 191ZM340.811 324.378C338.888 349.122 322.422 371.196 297.215 386.59C310.273 369.112 318 347.454 318 324C318 321.986 317.943 319.986 317.831 318H318V275.386C353.711 261.325 379 226.381 379 185.5C379 132.205 336.019 89 283 89C255.132 89 230.037 100.936 212.5 120C194.963 100.936 169.868 89 142 89C88.9807 89 46 132.205 46 185.5C46 226.381 71.2892 261.325 107 275.386V321H107.042C107.028 321.496 107.018 321.992 107.011 322.489C107.004 322.992 107 323.495 107 324C107 348.424 115.378 370.9 129.431 388.736C102.173 373.285 84.2034 350.296 82.1891 324.378C41.6001 292.403 16 245.62 16 193.5C16 97.1262 103.528 19 211.5 19C319.472 19 407 97.1262 407 193.5C407 245.62 381.4 292.403 340.811 324.378ZM300 334.5C300 364.222 281.946 390.134 255.205 403.775C241.551 407.157 226.837 409 211.5 409C196.881 409 182.827 407.326 169.719 404.24C142.471 390.729 124 364.563 124 334.5V334.405L124.002 334L124 319V266.5V265.96L123.958 265.953C123.695 264.28 122.247 263 120.5 263C120.344 263 120.189 263.01 120.038 263.03C87.1165 253.694 63 223.413 63 187.5C63 144.146 98.1456 109 141.5 109C165.085 109 186.24 119.401 200.63 135.866C201.38 137.806 202.76 139.492 204.558 140.737L204.792 141.055L205.03 141.38C205.145 141.339 205.262 141.298 205.379 141.259C207.277 142.359 209.553 143 212 143C214.856 143 217.479 142.127 219.539 140.669L219.751 140.72L219.855 140.745C220.019 140.786 220.182 140.828 220.343 140.871C234.642 121.537 257.607 109 283.5 109C326.854 109 362 144.146 362 187.5C362 224.789 336 256.005 301.141 264.01C301.095 264.003 301.048 264 301 264C300.448 264 300 264.448 300 265V280V287V324V332H299.957C299.986 332.83 300 333.664 300 334.5ZM212.715 221.479C212.799 221.653 212.883 221.827 212.968 222H212.032C212.19 221.677 212.346 221.354 212.5 221.028L212.598 221.235L212.715 221.479ZM158.934 141.274C178.145 149.765 188.688 164.481 189.396 184.801C190.295 210.598 172.402 231.229 147.206 234.673C124.089 237.833 105.092 224.638 97.2079 208.516C82.5281 178.5 100.315 143.837 132.614 138.628C141.634 137.173 150.109 138.325 158.934 141.274ZM170.466 181.874C170.273 181.491 170.193 181.052 170.11 180.602C169.923 179.577 169.724 178.488 168.148 177.836C162.304 188.365 154.127 195.468 141.128 195.668C128.031 195.869 119.582 188.864 113.189 178.075C108.605 185.672 110.99 197.867 118.004 205.979C126.577 215.892 140.347 219.276 151.994 214.331C164.42 209.054 171.848 196.453 170.466 181.874ZM132.933 160.373C128.948 166.668 130.33 172.882 136.399 175.952C141.572 178.568 147.918 175.877 150.266 170.072C152.348 164.924 149.258 159.053 143.479 157.044C139.457 155.646 136.379 157.416 132.933 160.373ZM238.946 210.222C221.126 175.883 245.501 136.824 283.607 138.027C307.987 138.797 328.496 158.598 330.26 183.069C332.02 207.504 314.908 230.118 291.323 234.523C270.129 238.482 250.005 229.233 238.946 210.222ZM311.606 185.954L311.607 185.828C311.626 182.816 311.646 179.798 309.248 177.007C303.444 188.667 294.963 195.618 281.778 195.788C268.494 195.958 260.007 188.713 253.912 177.308C249.404 186.582 251.956 198.745 259.565 207.065C267.917 216.198 280.907 219.234 292.449 214.752C303.819 210.337 311.381 199.308 311.606 185.954ZM271.856 169.864C274.806 175.806 278.163 177.963 283.453 176.92C287.973 176.029 290.755 173.082 291.524 168.57C292.221 164.481 290.844 161.059 287.312 158.668C284.028 156.445 280.469 155.863 277.005 157.88C272.783 160.34 270.678 164.08 271.856 169.864ZM227.874 287.106C235.115 287.436 237.981 290.242 238.673 297.239C239.355 304.14 239.355 304.14 246.412 304.158C246.521 304.158 246.629 304.157 246.737 304.155C246.902 304.152 247.067 304.146 247.232 304.141C247.794 304.124 248.355 304.106 248.908 304.169C253.695 304.711 255.443 302.65 255.289 297.835C255.078 291.222 258.022 287.604 263.164 287.103C269.019 286.531 273.241 290.032 273.581 296.552C273.808 300.926 274.272 304.324 278.779 306.724C282.622 308.771 282.724 313.132 281.542 317.003C280.407 320.719 277.502 322.618 273.613 322.74C271.223 322.814 268.831 322.807 266.438 322.8C265.334 322.797 264.229 322.793 263.125 322.798C256.228 322.828 256.029 322.939 255.989 329.72C255.967 333.43 255.208 336.65 251.867 338.784C246.058 342.495 239.035 339.581 237.596 332.737C237.292 331.289 237.273 329.778 237.254 328.272C237.247 327.771 237.241 327.27 237.224 326.773C237.153 324.669 236.28 323.102 234.083 322.988C230.764 322.816 227.406 322.675 224.111 322.997C220.794 323.321 220.881 325.996 220.96 328.407L220.971 328.779C221.088 332.807 220.341 336.468 216.735 338.858C210.48 343.003 203.053 339.039 202.261 331.251C202.191 330.56 202.231 329.815 202.271 329.064C202.387 326.914 202.505 324.721 200.033 323.646C196.29 322.019 192.169 322.598 188.236 323.21C186.279 323.514 185.956 325.36 185.926 327.142C185.919 327.549 185.918 327.956 185.918 328.362C185.915 330.439 185.912 332.51 185.054 334.519C183.248 338.744 179.354 341.228 175.174 340.449C170.571 339.592 167.748 336.902 167.295 332.085C167.187 330.928 167.134 329.749 167.22 328.593C167.523 324.513 165.532 322.802 161.598 322.833L160.199 322.844C156.502 322.876 152.799 322.908 149.114 322.692C145.274 322.467 142.349 320.433 141.468 316.623C140.531 312.57 140.684 308.208 144.943 306.103C148.819 304.187 149.349 301.399 149.402 297.641C149.492 291.209 152.649 287.515 157.761 287.093C163.809 286.593 167.532 289.885 167.976 295.978C168.004 296.365 168.004 296.774 167.992 297.192C167.984 297.461 167.972 297.734 167.96 298.008C167.859 300.283 167.753 302.652 170.265 303.534C174.155 304.899 178.545 304.751 182.536 303.548C184.529 302.947 184.483 301.093 184.439 299.324C184.433 299.062 184.426 298.803 184.427 298.55C184.427 298.305 184.433 298.067 184.452 297.838C184.965 291.482 187.608 287.82 192.256 287.137C198.289 286.25 202.577 289.727 203.146 295.866C203.21 296.553 203.177 297.308 203.143 298.071C203.045 300.317 202.943 302.635 205.295 303.51C209.142 304.941 213.62 304.883 217.539 303.51C219.935 302.67 219.931 300.252 219.928 298.042C219.927 297.472 219.927 296.915 219.967 296.403C220.36 291.445 222.566 288.294 227.874 287.106ZM50.313 63.8442C64.1646 49.647 80.2516 38.3362 97.7552 28.4341C82.0472 15.9526 52.3206 16.6079 34.0983 35.2322C16.4899 53.2292 15.0847 82.3928 25.7335 94.8186C32.8381 83.8081 40.6791 73.5488 50.313 63.8442ZM394.105 90.2791C394.49 90.6995 394.795 91.197 395.1 91.6951C395.741 92.7417 396.383 93.7891 397.764 94.1216C408.691 80.8042 405.418 50.1431 386.989 33.5164C366.358 14.9036 335.912 17.781 325.462 28.7256C352.887 43.9055 376.198 63.6057 394.105 90.2791Z" fill="#D4D2CA"/>
</svg>
