<svg width="740" height="740" viewBox="0 0 740 740" fill="none" xmlns="http://www.w3.org/2000/svg">
<path d="M719.231 0.769531H425.385C413.077 0.769531 400.769 8.46184 400.769 20.7695V66.9234C400.769 79.2311 411.539 93.0772 425.385 93.0772H546.923C560.769 93.0772 568.462 108.462 557.692 117.693L296.154 379.231C286.923 388.462 286.923 402.308 296.154 411.539L328.462 443.846C337.692 453.077 351.539 453.077 360.769 443.846L622.308 182.308C631.539 173.077 646.923 179.231 646.923 193.077V314.616C646.923 326.923 659.231 340.77 671.539 340.77H716.154C728.462 340.77 739.231 326.923 739.231 314.616V22.308C739.231 8.46184 731.539 0.769531 719.231 0.769531Z" fill="#E9E8E5"/>
<path d="M528.462 362.308L476.154 416.154C466.923 425.385 462.308 436.154 462.308 448.462V623.846C462.308 636.154 451.539 646.923 439.231 646.923H116.154C103.846 646.923 93.077 636.154 93.077 623.846V300.769C93.077 288.462 103.846 277.692 116.154 277.692H293.077C305.385 277.692 317.692 273.077 325.385 263.846L377.692 211.539C386.923 202.308 380.769 185.385 366.923 185.385H62.3077C28.4616 185.385 0.769287 213.077 0.769287 246.923V677.692C0.769287 711.539 28.4616 739.231 62.3077 739.231H493.077C526.923 739.231 554.615 711.539 554.615 677.692V373.077C554.615 359.231 537.692 353.077 528.462 362.308Z" fill="#E9E8E5"/>
</svg>
