<svg width="839" height="516" viewBox="0 0 839 516" fill="none" xmlns="http://www.w3.org/2000/svg">
<path d="M429.082 146.619C406.15 62.0312 323.242 0 223.576 0C106.27 0 11.8963 87.0048 11.8963 193.344C11.8963 228.79 22.4803 262.626 41.0023 290.822L2.19431 368.159C-6.62569 385.077 12.7783 402.8 31.3003 394.744L115.972 359.298C146.842 376.215 183.886 385.882 222.694 385.882C273.85 385.882 320.596 369.77 356.758 342.38C354.994 331.907 354.112 321.434 354.112 310.962C355.876 247.319 384.1 188.51 429.082 146.619ZM227.986 320.629C212.11 320.629 198.88 308.545 198.88 294.044C198.88 279.543 212.11 267.459 227.986 267.459C243.862 267.459 257.092 279.543 257.092 294.044C257.092 308.545 243.862 320.629 227.986 320.629ZM298.546 184.482C287.08 198.178 275.614 205.428 267.676 211.067C257.974 217.512 254.446 219.929 252.682 233.624C251.8 240.069 245.626 244.902 239.452 244.902H219.166C211.228 244.902 205.054 238.458 205.936 231.207C208.582 198.178 222.694 186.094 240.334 174.815C247.39 169.982 253.564 165.954 260.62 157.898C267.676 149.036 268.558 137.758 262.384 128.09C258.856 121.646 249.154 110.367 226.222 110.367C196.234 110.367 186.532 128.09 183.886 140.98C183.004 147.425 176.83 151.453 170.656 151.453H149.488C141.55 151.453 134.494 145.008 136.258 137.758C142.432 101.506 170.656 66.8648 226.222 66.8648C261.502 66.8648 290.608 82.1712 305.602 108.756C317.95 134.535 315.304 162.731 298.546 184.482Z" fill="#282624"/>
<path d="M836.566 486.583L797.758 409.245C816.28 380.243 826.864 347.214 826.864 311.767C826.864 204.623 731.608 118.423 615.184 118.423C497.878 118.423 403.504 205.428 403.504 311.767C403.504 418.912 498.76 505.111 615.184 505.111C653.992 505.111 691.036 495.444 721.906 478.527L806.578 513.973C825.1 521.223 844.504 503.5 836.566 486.583ZM496.996 344.797C476.71 344.797 460.834 330.296 460.834 311.767C460.834 293.239 476.71 278.738 496.996 278.738C517.282 278.738 533.158 293.239 533.158 311.767C533.158 330.296 517.282 344.797 496.996 344.797ZM615.184 344.797C594.898 344.797 579.022 330.296 579.022 311.767C579.022 293.239 594.898 278.738 615.184 278.738C635.47 278.738 651.346 293.239 651.346 311.767C651.346 330.296 634.588 344.797 615.184 344.797ZM732.49 344.797C712.204 344.797 696.328 330.296 696.328 311.767C696.328 293.239 712.204 278.738 732.49 278.738C752.776 278.738 768.652 293.239 768.652 311.767C768.652 330.296 752.776 344.797 732.49 344.797Z" fill="#282624"/>
</svg>
